{
    "asset": {
        "extensions": {
            "ASOBO_normal_map_convention": {
                "tangent_space_convention": "DirectX"
            }
        },
        "generator": "Khronos glTF Blender I/O v3.6.28 and Asobo Studio MSFS2024 Blender I/O v5.4.7 with Blender v3.6.23",
        "version": "2.0"
    },
    "extensionsUsed": [
        "ASOBO_normal_map_convention",
        "ASOBO_unique_id"
    ],
    "scene": 0,
    "scenes": [
        {
            "name": "Scene",
            "nodes": [
                0
            ]
        }
    ],
    "nodes": [
        {
            "extensions": {
                "ASOBO_unique_id": {
                    "id": "Cube"
                }
            },
            "mesh": 0,
            "name": "Cube",
            "translation": [
                0,
                0.4650000035762787,
                0
            ]
        }
    ],
    "materials": [
        {
            "alphaMode": "OPAQUE",
            "doubleSided": false,
            "emissiveFactor": [
                0,
                0,
                0
            ],
            "extras": {},
            "name": "black plastic",
            "pbrMetallicRoughness": {
                "baseColorFactor": [
                    1,
                    1,
                    1,
                    1
                ],
                "baseColorTexture": {
                    "index": 0
                },
                "metallicFactor": 1,
                "roughnessFactor": 1
            }
        }
    ],
    "meshes": [
        {
            "name": "Cube",
            "primitives": [
                {
                    "attributes": {
                        "COLOR_0": 0,
                        "POSITION": 1,
                        "NORMAL": 2,
                        "TEXCOORD_0": 3
                    },
                    "indices": 4,
                    "material": 0
                }
            ]
        }
    ],
    "textures": [
        {
            "sampler": 0,
            "source": 0
        }
    ],
    "images": [
        {
            "mimeType": "image/png",
            "name": "jst_clu_waste-bin-120l_baseColor-Black-red_lid",
            "uri": "..\\texture\\jst_clu_waste-bin-120l_baseColor-Black-red_lid.png"
        }
    ],
    "accessors": [
        {
            "bufferView": 0,
            "componentType": 5123,
            "count": 288,
            "normalized": true,
            "type": "VEC4"
        },
        {
            "bufferView": 1,
            "componentType": 5126,
            "count": 288,
            "max": [
                0.18673528730869293,
                0.3287639617919922,
                0.12414127588272095
            ],
            "min": [
                -0.19862322509288788,
                -0.4650000035762787,
                -0.2745644450187683
            ],
            "type": "VEC3"
        },
        {
            "bufferView": 2,
            "componentType": 5126,
            "count": 288,
            "type": "VEC3"
        },
        {
            "bufferView": 3,
            "componentType": 5126,
            "count": 288,
            "type": "VEC2"
        },
        {
            "bufferView": 4,
            "componentType": 5123,
            "count": 444,
            "type": "SCALAR"
        }
    ],
    "bufferViews": [
        {
            "buffer": 0,
            "byteLength": 2304,
            "byteOffset": 0,
            "target": 34962
        },
        {
            "buffer": 0,
            "byteLength": 3456,
            "byteOffset": 2304,
            "target": 34962
        },
        {
            "buffer": 0,
            "byteLength": 3456,
            "byteOffset": 5760,
            "target": 34962
        },
        {
            "buffer": 0,
            "byteLength": 2304,
            "byteOffset": 9216,
            "target": 34962
        },
        {
            "buffer": 0,
            "byteLength": 888,
            "byteOffset": 11520,
            "target": 34963
        }
    ],
    "samplers": [
        {
            "magFilter": 9729,
            "minFilter": 9987
        }
    ],
    "buffers": [
        {
            "byteLength": 12408,
            "uri": "waste-bin-120l-red-lid_LOD1.bin"
        }
    ]
}